HIERARCHY
ROOT Hips
{
	OFFSET 0.000000 0.000000 0.000000
	CHANNELS 6 Xposition Yposition Zposition Zrotation Yrotation Xrotation 
	JOINT LHipJoint
	{
		OFFSET 0.000000 0.000000 0.000000
		CHANNELS 3 Zrotation Yrotation Xrotation
		JOINT LeftUpLeg
		{
			OFFSET 8.178360 -10.767780 5.035740
			CHANNELS 3 Zrotation Yrotation Xrotation
			JOINT LeftLeg
			{
				OFFSET 14.688660 -40.356780 0.000000
				CHANNELS 3 Zrotation Yrotation Xrotation
				JOINT LeftFoot
				{
					OFFSET 15.373200 -42.237540 0.000000
					CHANNELS 3 Zrotation Yrotation Xrotation
					JOINT LeftToeBase
					{
						OFFSET 0.945840 -2.598660 13.935300
						CHANNELS 3 Zrotation Yrotation Xrotation
						End Site
						{
							OFFSET 0.000000 0.000000 0.000000
						}
					}
				}
			}
		}
	}
	JOINT RHipJoint
	{
		OFFSET 0.000000 0.000000 0.000000
		CHANNELS 3 Zrotation Yrotation Xrotation
		JOINT RightUpLeg
		{
			OFFSET -7.833120 -10.767780 5.035740
			CHANNELS 3 Zrotation Yrotation Xrotation
			JOINT RightLeg
			{
				OFFSET -15.255180 -41.913300 0.000000
				CHANNELS 3 Zrotation Yrotation Xrotation
				JOINT RightFoot
				{
					OFFSET -15.409560 -42.337380 0.000000
					CHANNELS 3 Zrotation Yrotation Xrotation
					JOINT RightToeBase
					{
						OFFSET -0.988380 -2.715540 14.178900
						CHANNELS 3 Zrotation Yrotation Xrotation
						End Site
						{
							OFFSET 0.000000 0.000000 0.000000
						}
					}
				}
			}
		}
	}
	JOINT LowerBack
	{
		OFFSET 0.000000 0.000000 0.000000
		CHANNELS 3 Zrotation Yrotation Xrotation
		JOINT Spine
		{
			OFFSET 0.169620 12.213540 -1.160280
			CHANNELS 3 Zrotation Yrotation Xrotation
			JOINT Spine1
			{
				OFFSET 0.340320 12.293100 -0.256500
				CHANNELS 3 Zrotation Yrotation Xrotation
				JOINT Neck
				{
					OFFSET 0.000000 0.000000 0.000000
					CHANNELS 3 Zrotation Yrotation Xrotation
					JOINT Neck1
					{
						OFFSET -0.325020 10.477440 1.032120
						CHANNELS 3 Zrotation Yrotation Xrotation
						JOINT Head
						{
							OFFSET 0.624420 10.568160 -0.743820
							CHANNELS 3 Zrotation Yrotation Xrotation
							End Site
							{
								OFFSET 0.000000 0.000000 0.000000
							}
						}
					}
				}
				JOINT LeftShoulder
				{
					OFFSET 0.000000 0.000000 0.000000
					CHANNELS 3 Zrotation Yrotation Xrotation
					JOINT LeftArm
					{
						OFFSET 20.174460 7.205340 -1.867260
						CHANNELS 3 Zrotation Yrotation Xrotation
						JOINT LeftForeArm
						{
							OFFSET 29.898000 -0.000000 -0.000000
							CHANNELS 3 Zrotation Yrotation Xrotation
							JOINT LeftHand
							{
								OFFSET 20.901360 -0.000000 -0.000000
								CHANNELS 3 Zrotation Yrotation Xrotation
								JOINT LeftFingerBase
								{
									OFFSET 0.000000 0.000000 0.000000
									CHANNELS 3 Zrotation Yrotation Xrotation
									JOINT LeftHandIndex1
									{
										OFFSET 4.291560 -0.000000 -0.000000
										CHANNELS 3 Zrotation Yrotation Xrotation
										End Site
										{
											OFFSET 0.000000 0.000000 0.000000
										}
									}
								}
								JOINT LThumb
								{
									OFFSET 0.000000 0.000000 0.000000
									CHANNELS 3 Zrotation Yrotation Xrotation
									End Site
									{
										OFFSET 0.000000 0.000000 0.000000
									}
								}
							}
						}
					}
				}
				JOINT RightShoulder
				{
					OFFSET 0.000000 0.000000 0.000000
					CHANNELS 3 Zrotation Yrotation Xrotation
					JOINT RightArm
					{
						OFFSET -18.819600 8.244300 -2.427900
						CHANNELS 3 Zrotation Yrotation Xrotation
						JOINT RightForeArm
						{
							OFFSET -31.451400 -0.000000 -0.000000
							CHANNELS 3 Zrotation Yrotation Xrotation
							JOINT RightHand
							{
								OFFSET -20.665020 -0.000000 -0.000000
								CHANNELS 3 Zrotation Yrotation Xrotation
								JOINT RightFingerBase
								{
									OFFSET 0.000000 0.000000 0.000000
									CHANNELS 3 Zrotation Yrotation Xrotation
									JOINT RightHandIndex1
									{
										OFFSET -3.735180 -0.000000 -0.000000
										CHANNELS 3 Zrotation Yrotation Xrotation
										End Site
										{
											OFFSET 0.000000 0.000000 0.000000
										}
									}
								}
								JOINT RThumb
								{
									OFFSET 0.000000 0.000000 0.000000
									CHANNELS 3 Zrotation Yrotation Xrotation
									End Site
									{
										OFFSET 0.000000 0.000000 0.000000
									}
								}
							}
						}
					}
				}
			}
		}
	}
}
MOTION
Frames:	6
Frame Time:	0.0333333
61.742262 107.383170 -63.334986 -1.544085 -42.074354 3.859518 -3.160510 1.607779 2.930323 -13.314778 -2.614302 -9.186818 0.110718 7.478119 22.493586 0.537150 -1.901289 -6.108156 0.099200 -2.031500 -5.592700 0.625381 -1.389723 1.162776 22.839648 3.260336 -7.936726 -1.792385 -8.956215 27.113433 0.248420 -3.617426 -8.777900 -0.044400 -1.359300 3.738100 0.271750 0.281357 2.752946 1.523346 0.439956 -0.035698 -0.157748 0.116492 -3.751224 -12.474881 -6.855000 -17.734348 8.433065 -7.089210 16.407841 4.891500 -3.490700 13.166300 -6.556704 -0.457971 -1.695498 -83.527345 4.517117 16.933024 14.438152 -20.609592 -3.032563 -1.878022 -2.534398 9.906597 23.505542 28.475482 13.539700 -7.125000 0.000000 0.000000 -8.321600 63.521600 -3.751500 5.118913 1.470134 -1.193253 84.054346 -7.916708 10.878139 -16.759238 24.755745 -3.903145 0.279836 -0.117444 6.432136 -12.684951 7.965942 -1.846900 7.125000 0.000000 0.000000 10.044200 -21.772500 5.688100 
61.611984 107.362758 -63.395622 -1.384921 -42.022068 3.932003 -3.160834 1.590066 2.922654 -13.346351 -2.433756 -9.392087 0.099995 7.447415 22.405470 0.554485 -2.062407 -5.946299 0.085800 -1.889800 -5.201200 0.630739 -1.384910 1.162558 22.817683 3.271241 -8.209004 -1.818703 -9.013717 27.282543 0.297743 -3.865628 -8.858518 -0.013100 -0.739700 2.032800 0.113638 0.329531 2.656224 1.454417 0.491917 -0.069084 -0.211486 0.148692 -3.754210 -12.211845 -6.812067 -17.723445 8.186385 -7.128036 16.659512 4.736700 -3.515800 13.248200 -6.552242 -0.475383 -1.696927 -83.604349 4.558983 16.988009 14.454808 -20.630817 -3.039146 -1.904172 -2.520646 9.654851 23.999234 28.258758 13.767300 -7.125000 0.000000 0.000000 -7.524400 63.423400 -3.372700 5.116887 1.447907 -1.208964 84.339576 -8.024918 11.457110 -16.894101 24.919866 -3.963251 0.293264 -0.101343 6.432754 -13.050409 7.503637 -1.789700 7.125000 0.000000 0.000000 9.795000 -22.243800 5.436000 
61.452894 107.343546 -63.441846 -1.512622 -42.087117 3.946880 -3.150600 1.603730 2.932076 -13.179747 -2.355171 -9.327725 0.117822 7.480327 22.497750 0.563937 -2.050377 -6.114490 0.129300 -2.317600 -6.384200 0.623273 -1.386919 1.156063 22.996204 3.132975 -8.081080 -1.807081 -8.986022 27.205504 0.255169 -3.683130 -8.922033 -0.022700 -0.972900 2.674300 0.120379 0.416787 2.718692 1.500707 0.612333 -0.001568 -0.142981 0.204047 -3.689025 -12.497010 -6.876346 -17.743722 8.396822 -7.135636 16.673143 4.880100 -3.522200 13.285200 -6.562431 -0.461191 -1.692007 -83.748875 4.466063 17.064032 14.412396 -20.551316 -3.017290 -1.902848 -2.496377 9.845663 23.879827 27.994818 13.584700 -7.125000 0.000000 0.000000 -7.500100 63.103600 -3.305500 5.114867 1.464973 -1.200250 84.303073 -8.077436 11.598473 -17.029001 25.125353 -4.035892 0.264182 -0.132684 6.423269 -12.324317 8.596428 -1.935000 7.125000 0.000000 0.000000 10.282700 -21.134500 5.978800 
61.348428 107.351346 -63.554112 -1.325835 -41.686094 3.932246 -3.146952 1.588062 2.920725 -13.196932 -2.293014 -9.521199 0.115937 7.470896 22.470654 0.588535 -2.262849 -5.948137 0.171200 -2.665700 -7.349500 0.634306 -1.382545 1.163136 22.956231 3.037990 -8.267245 -1.816555 -9.006714 27.267162 0.266187 -3.755972 -9.012392 -0.047500 -1.406900 3.869100 -0.015698 0.371499 2.893465 1.448657 0.542355 -0.064591 -0.155922 0.176116 -3.896626 -12.416070 -6.862878 -17.460821 8.214822 -7.159508 16.593169 4.783000 -3.553400 13.179300 -6.558715 -0.475580 -1.691878 -83.642337 4.536182 17.832365 14.390506 -20.521604 -3.014312 -1.856914 -2.573971 9.106482 23.517623 28.530126 13.579600 -7.125000 0.000000 0.000000 -8.337100 63.597000 -3.773300 5.109377 1.461976 -1.208573 84.571399 -8.103876 11.733453 -17.174665 25.314759 -4.105372 0.259487 -0.136216 6.242284 -12.215725 8.796341 -1.961800 7.125000 0.000000 0.000000 10.354200 -20.932900 6.069700 
61.219356 107.329134 -63.560718 -1.333157 -41.669602 3.946952 -3.139018 1.587128 2.919033 -13.115566 -2.210042 -9.585239 0.131667 7.493897 22.538245 0.615786 -2.459192 -5.867549 0.148800 -2.485900 -6.850600 0.632132 -1.380637 1.160382 23.020950 2.933614 -8.301654 -1.821069 -9.011524 27.286026 0.246038 -3.666435 -9.023310 -0.032700 -1.167100 3.208700 0.145864 0.351994 2.890783 1.446043 0.527817 -0.031126 -0.272370 0.168633 -3.826706 -12.426619 -6.743709 -17.581681 7.974916 -6.978817 16.913871 4.725400 -3.511500 13.306800 -6.553472 -0.493113 -1.692171 -83.871694 4.502474 17.262957 14.492186 -20.655831 -3.053195 -1.890321 -2.532281 9.777797 23.747552 28.368600 13.652600 -7.125000 0.000000 0.000000 -7.934300 63.477900 -3.567700 5.100769 1.442536 -1.216366 84.577636 -8.164254 12.315248 -17.399470 25.602832 -4.208105 0.281953 -0.126284 5.487279 -12.770455 8.673843 -2.025000 7.125000 0.000000 0.000000 9.949000 -21.041500 5.800000 
61.042854 107.290116 -63.588330 -1.306655 -41.562080 3.902132 -3.139765 1.596424 2.926080 -13.050971 -2.321974 -9.446293 0.125251 7.482025 22.503554 0.622497 -2.445415 -6.020662 0.163400 -2.604700 -7.180100 0.627566 -1.384360 1.158236 23.087175 2.710920 -8.319570 -1.836934 -9.039789 27.374891 0.229077 -3.621745 -9.158350 -0.039000 -1.275400 3.506900 0.152647 0.309498 2.866988 1.490977 0.469564 0.005005 -0.196348 0.140371 -3.751135 -12.521280 -6.597704 -17.393048 7.828247 -6.758193 16.984397 4.722200 -3.454100 13.255000 -6.557444 -0.506873 -1.683150 -83.901911 4.465083 17.562077 14.393741 -20.509538 -3.009723 -1.906067 -2.516607 9.758395 23.902209 28.175976 13.676300 -7.125000 0.000000 0.000000 -7.592000 63.312400 -3.383400 5.108971 1.425652 -1.216006 84.460741 -8.108815 12.404625 -17.450963 25.678105 -4.235174 0.274008 -0.132287 5.720299 -12.590963 8.852931 -2.036800 7.125000 0.000000 0.000000 10.074500 -20.862800 5.916700 
